<svg width="144" height="29" viewBox="0 0 144 29" fill="none" xmlns="http://www.w3.org/2000/svg">
<path d="M23.1693 7.17948V22.9413H27.588V14.6793C27.588 13.0736 27.8576 11.9253 28.3971 11.2343C28.9365 10.5229 29.8077 10.1672 31.011 10.1672C32.069 10.1672 32.8055 10.4924 33.2203 11.1428C33.6352 11.7729 33.8426 12.7383 33.8426 14.0391V22.9413H38.2612V13.2464C38.2612 12.2708 38.168 11.3867 37.9812 10.594C37.8152 9.78104 37.5145 9.10015 37.0788 8.55138C36.6433 7.98231 36.0416 7.54532 35.274 7.24044C34.5273 6.91524 33.5625 6.75265 32.38 6.75265C31.4465 6.75265 30.5338 6.96605 29.6417 7.39288C28.7497 7.79938 28.0235 8.45992 27.4636 9.37454H27.3701V7.17948H23.1693Z" fill="#0E0E0E"/>
<path d="M41.4283 12.0269C41.4904 11.0107 41.7499 10.1672 42.2063 9.4965C42.6626 8.82577 43.2434 8.28717 43.9487 7.88067C44.6542 7.47419 45.4424 7.18963 46.3136 7.02703C47.2057 6.84411 48.0978 6.75265 48.9899 6.75265C49.799 6.75265 50.6184 6.81363 51.4481 6.93557C52.2781 7.03721 53.0351 7.25061 53.7198 7.5758C54.4044 7.901 54.9643 8.35831 55.4001 8.94773C55.8358 9.51681 56.0535 10.279 56.0535 11.2343V19.4353C56.0535 20.1467 56.095 20.8275 56.178 21.4779C56.261 22.1284 56.4063 22.6161 56.6137 22.9413H52.1327C52.0498 22.6973 51.9771 22.4536 51.915 22.2096C51.8735 21.9455 51.8423 21.6812 51.8215 21.4169C51.1162 22.1284 50.2865 22.6263 49.3321 22.9107C48.3779 23.1954 47.4028 23.3376 46.4072 23.3376C45.6395 23.3376 44.9237 23.2461 44.26 23.0631C43.5962 22.8802 43.0154 22.5958 42.5173 22.2096C42.0195 21.8234 41.6255 21.3357 41.3348 20.7462C41.0653 20.1568 40.9303 19.4556 40.9303 18.6426C40.9303 17.7483 41.0859 17.0167 41.3972 16.4476C41.7291 15.8581 42.1439 15.3907 42.6418 15.0451C43.1604 14.6996 43.7413 14.4456 44.3844 14.283C45.0482 14.1 45.7122 13.9578 46.376 13.8561C47.0398 13.7545 47.6932 13.6732 48.3364 13.6123C48.9795 13.5513 49.55 13.4598 50.0479 13.3379C50.5457 13.2159 50.9399 13.0432 51.2303 12.8196C51.5208 12.5757 51.6555 12.2302 51.6349 11.783C51.6349 11.3156 51.5519 10.9497 51.386 10.6855C51.2407 10.4009 51.0332 10.1875 50.7634 10.0453C50.5145 9.88265 50.2138 9.78104 49.8611 9.74038C49.5292 9.6794 49.1661 9.64892 48.7721 9.64892C47.9007 9.64892 47.216 9.83185 46.7182 10.1977C46.2204 10.5635 45.9299 11.1733 45.847 12.0269H41.4283ZM51.6349 15.2281C51.4481 15.3907 51.2095 15.5228 50.9191 15.6244C50.6495 15.7057 50.3486 15.7768 50.0167 15.8378C49.7057 15.8988 49.3735 15.9496 49.021 15.9902C48.6683 16.0309 48.3155 16.0817 47.963 16.1427C47.6311 16.2036 47.2992 16.285 46.9671 16.3866C46.6561 16.4882 46.376 16.6305 46.1271 16.8134C45.8988 16.976 45.7122 17.1894 45.5669 17.4536C45.4218 17.7178 45.3491 18.0532 45.3491 18.4597C45.3491 18.8459 45.4218 19.1711 45.5669 19.4353C45.7122 19.6995 45.9091 19.9129 46.1582 20.0755C46.4072 20.2178 46.6976 20.3194 47.0295 20.3804C47.3613 20.4414 47.7035 20.4719 48.0563 20.4719C48.9275 20.4719 49.6018 20.3296 50.079 20.045C50.556 19.7605 50.9088 19.4251 51.1371 19.039C51.3651 18.6325 51.4999 18.226 51.5416 17.8195C51.6037 17.413 51.6349 17.0878 51.6349 16.8439V15.2281Z" fill="#0E0E0E"/>
<path d="M59.6077 1.1735V22.9413H64.0265V1.1735H59.6077Z" fill="#0E0E0E"/>
<path d="M71.4267 15.0756C71.4267 14.4456 71.4888 13.8257 71.6132 13.2159C71.7377 12.6062 71.9454 12.0676 72.2358 11.6001C72.5468 11.1326 72.9513 10.7566 73.4492 10.4721C73.9472 10.1672 74.5695 10.0148 75.3163 10.0148C76.063 10.0148 76.6856 10.1672 77.1834 10.4721C77.7021 10.7566 78.1066 11.1326 78.397 11.6001C78.7081 12.0676 78.9261 12.6062 79.0505 13.2159C79.175 13.8257 79.2371 14.4456 79.2371 15.0756C79.2371 15.7057 79.175 16.3256 79.0505 16.9353C78.9261 17.5248 78.7081 18.0634 78.397 18.5512C78.1066 19.0186 77.7021 19.3946 77.1834 19.6792C76.6856 19.9637 76.063 20.106 75.3163 20.106C74.5695 20.106 73.9472 19.9637 73.4492 19.6792C72.9513 19.3946 72.5468 19.0186 72.2358 18.5512C71.9454 18.0634 71.7377 17.5248 71.6132 16.9353C71.4888 16.3256 71.4267 15.7057 71.4267 15.0756ZM67.008 15.0756C67.008 16.3358 67.2049 17.474 67.5991 18.4902C67.9934 19.5064 68.5533 20.3804 69.2794 21.1121C70.0056 21.8234 70.8768 22.3722 71.8933 22.7583C72.9098 23.1445 74.0508 23.3376 75.3163 23.3376C76.5817 23.3376 77.7227 23.1445 78.7392 22.7583C79.7764 22.3722 80.6582 21.8234 81.3843 21.1121C82.1104 20.3804 82.6704 19.5064 83.0646 18.4902C83.4588 17.474 83.656 16.3358 83.656 15.0756C83.656 13.8155 83.4588 12.6773 83.0646 11.6611C82.6704 10.6245 82.1104 9.75056 81.3843 9.03919C80.6582 8.3075 79.7764 7.74858 78.7392 7.3624C77.7227 6.9559 76.5817 6.75265 75.3163 6.75265C74.0508 6.75265 72.9098 6.9559 71.8933 7.3624C70.8768 7.74858 70.0056 8.3075 69.2794 9.03919C68.5533 9.75056 67.9934 10.6245 67.5991 11.6611C67.2049 12.6773 67.008 13.8155 67.008 15.0756Z" fill="#0E0E0E"/>
<path d="M94.0282 19.2219C93.3436 19.2219 92.7731 19.0796 92.3167 18.7951C91.8604 18.5105 91.487 18.1447 91.1966 17.6975C90.9268 17.2504 90.7297 16.7524 90.6052 16.2036C90.5016 15.6346 90.4496 15.0655 90.4496 14.4964C90.4496 13.907 90.512 13.348 90.6364 12.8196C90.7817 12.2708 90.9995 11.7932 91.2899 11.3867C91.6011 10.9599 91.9745 10.6245 92.41 10.3806C92.8666 10.1367 93.4059 10.0148 94.0282 10.0148C94.7543 10.0148 95.356 10.1469 95.833 10.4111C96.3102 10.6753 96.6939 11.031 96.9845 11.4782C97.2749 11.9253 97.4823 12.4436 97.6068 13.033C97.7313 13.6021 97.7934 14.2118 97.7934 14.8622C97.7934 15.4313 97.7104 15.9801 97.5444 16.5085C97.3994 17.0167 97.1711 17.474 96.8598 17.8804C96.5488 18.2869 96.1545 18.6121 95.6776 18.856C95.2004 19.0999 94.6505 19.2219 94.0282 19.2219ZM101.994 21.9353V7.17948H97.7934V9.28308H97.7313C97.1919 8.36846 96.5176 7.71807 95.7085 7.3319C94.9203 6.94575 93.997 6.75265 92.939 6.75265C91.8189 6.75265 90.8232 6.96605 89.9518 7.39288C89.1012 7.81971 88.3856 8.39896 87.8048 9.13066C87.2238 9.84202 86.7777 10.6753 86.4667 11.6306C86.1763 12.5655 86.031 13.5411 86.031 14.5574C86.031 15.6346 86.1554 16.661 86.4044 17.6366C86.6741 18.5918 87.089 19.4353 87.6492 20.167C88.2091 20.8784 88.9249 21.4474 89.7961 21.8743C90.6676 22.2808 91.7047 22.4841 92.9081 22.4841C93.8831 22.4841 94.8061 22.291 95.6776 21.9048C96.5694 21.4983 97.254 20.8784 97.7313 20.045H97.7934V22.1182C97.8142 23.2361 97.5341 24.1607 96.9533 24.8924C96.3932 25.6241 95.4908 25.9899 94.2459 25.9899C93.4577 25.9899 92.7628 25.8274 92.1611 25.5022C91.5597 25.1974 91.1551 24.6385 90.9477 23.8254H86.56C86.6223 24.7196 86.8713 25.4819 87.3067 26.112C87.7633 26.7623 88.3233 27.2907 88.9873 27.6973C89.6717 28.1038 90.4187 28.3985 91.2275 28.5814C92.0575 28.7847 92.8666 28.8864 93.6548 28.8864C95.5011 28.8864 96.974 28.6424 98.0735 28.1547C99.173 27.6668 100.013 27.0671 100.594 26.3558C101.175 25.6648 101.548 24.9127 101.714 24.0999C101.901 23.2868 101.994 22.5653 101.994 21.9353Z" fill="#0E0E0E"/>
<path d="M120.644 22.9413V7.17948H116.225V15.4415C116.225 17.0471 115.956 18.2057 115.416 18.917C114.877 19.6081 114.006 19.9536 112.802 19.9536C111.744 19.9536 111.008 19.6385 110.593 19.0085C110.178 18.3581 109.971 17.3825 109.971 16.0817V7.17948H105.552V16.8744C105.552 17.85 105.635 18.7443 105.801 19.5572C105.987 20.3499 106.299 21.0308 106.734 21.5999C107.17 22.1485 107.761 22.5754 108.508 22.8802C109.276 23.1852 110.251 23.3376 111.433 23.3376C112.367 23.3376 113.279 23.1344 114.172 22.7278C115.064 22.3215 115.79 21.6609 116.35 20.7462H116.443V22.9413H120.644Z" fill="#0E0E0E"/>
<path d="M134.827 13.3684H127.638C127.659 13.0635 127.721 12.718 127.825 12.3318C127.95 11.9456 128.147 11.5798 128.416 11.2343C128.707 10.8887 129.08 10.6042 129.536 10.3806C130.014 10.1367 130.605 10.0148 131.31 10.0148C132.389 10.0148 133.188 10.2993 133.706 10.8684C134.246 11.4375 134.619 12.2708 134.827 13.3684ZM127.638 16.1122H139.245C139.328 14.8927 139.225 13.724 138.934 12.6062C138.644 11.4883 138.167 10.4924 137.503 9.61844C136.86 8.74448 136.03 8.05344 135.013 7.54532C133.997 7.01688 132.804 6.75265 131.435 6.75265C130.211 6.75265 129.09 6.96605 128.074 7.39288C127.078 7.81971 126.217 8.40911 125.491 9.16113C124.765 9.89283 124.205 10.7668 123.811 11.783C123.417 12.7993 123.22 13.8968 123.22 15.0756C123.22 16.2951 123.406 17.413 123.78 18.4292C124.174 19.4454 124.724 20.3194 125.429 21.0511C126.134 21.7829 126.995 22.3518 128.012 22.7583C129.028 23.1445 130.169 23.3376 131.435 23.3376C133.26 23.3376 134.816 22.9311 136.102 22.1182C137.389 21.3052 138.343 19.9536 138.965 18.0634H135.075C134.93 18.5512 134.536 19.0186 133.893 19.4658C133.25 19.8926 132.482 20.106 131.59 20.106C130.346 20.106 129.391 19.791 128.728 19.1609C128.064 18.5308 127.701 17.5146 127.638 16.1122Z" fill="#0E0E0E"/>
<path fill-rule="evenodd" clip-rule="evenodd" d="M4.61851 14.3947C4.14156 14.7981 4.02471 14.8795 3.62593 14.8795V18.2838C5.32224 18.2838 6.26093 17.4895 6.84312 16.9968C6.85003 16.991 6.85687 16.9852 6.86365 16.9795C7.3406 16.5761 7.45746 16.4947 7.85623 16.4947C8.255 16.4947 8.37185 16.5761 8.8488 16.9795C8.85559 16.9852 8.86242 16.991 8.8693 16.9968C9.45152 17.4895 10.3902 18.2838 12.0865 18.2838C13.7828 18.2838 14.7215 17.4895 15.3037 16.9968L15.3242 16.9795C15.8012 16.5761 15.918 16.4947 16.3168 16.4947C16.7156 16.4947 16.8325 16.5761 17.3094 16.9795L17.3299 16.9968C17.9121 17.4895 18.8508 18.2838 20.5471 18.2838C22.2434 18.2838 23.1821 17.4895 23.7643 16.9968L23.7848 16.9795C24.2617 16.5761 24.3787 16.4947 24.7775 16.4947V13.0904C23.0811 13.0904 22.1424 13.8847 21.5602 14.3773L21.5397 14.3947C21.0627 14.7981 20.9459 14.8795 20.5471 14.8795C20.1484 14.8795 20.0315 14.7981 19.5545 14.3947L19.534 14.3773C18.9518 13.8847 18.0131 13.0904 16.3168 13.0904C14.6205 13.0904 13.6818 13.8847 13.0996 14.3773C13.0927 14.3832 13.0859 14.389 13.0791 14.3947C12.6021 14.7981 12.4853 14.8795 12.0865 14.8795C11.6877 14.8795 11.5709 14.7981 11.0939 14.3947C11.0872 14.389 11.0803 14.3832 11.0734 14.3773C10.4912 13.8847 9.55253 13.0904 7.85623 13.0904C6.15992 13.0904 5.22123 13.8847 4.63901 14.3773C4.63213 14.3832 4.62529 14.389 4.61851 14.3947Z" fill="#0E0E0E"/>
<path d="M10.8223 6.45334L7.93013 14.4578L6.6551 18.0322L4.91359 22.8899H0L8.39663 1.07634H13.4035L21.7068 22.8899H16.6378L14.9584 18.0322L13.6834 14.4578L10.8845 6.45334H10.8223Z" fill="#0E0E0E"/>
<path d="M140.456 0.590535C139.673 0.590535 139.006 0.87034 138.454 1.43C137.911 1.97747 137.64 2.62681 137.64 3.37807C137.64 4.15669 137.916 4.81822 138.468 5.36267C139.016 5.90708 139.679 6.17929 140.456 6.17929C141.229 6.17929 141.89 5.90557 142.439 5.3581C142.988 4.80758 143.262 4.14758 143.262 3.37807C143.262 2.62986 142.989 1.98049 142.444 1.43C141.892 0.87034 141.229 0.590535 140.456 0.590535ZM143.863 3.37807C143.863 4.33311 143.523 5.13757 142.841 5.79151C142.179 6.42414 141.384 6.74046 140.456 6.74046C139.497 6.74046 138.69 6.41655 138.033 5.76869C137.377 5.12086 137.048 4.32398 137.048 3.37807C137.048 2.39566 137.403 1.57901 138.112 0.928128C138.778 0.319837 139.559 0.0156841 140.456 0.0156841C141.396 0.0156841 142.199 0.344168 142.865 1.00113C143.53 1.65809 143.863 2.45042 143.863 3.37807ZM142.176 3.94379C142.083 4.47301 141.873 4.84409 141.547 5.05697C141.223 5.26685 140.887 5.37178 140.539 5.37178C140.021 5.37178 139.573 5.18928 139.194 4.82431C138.818 4.45933 138.63 3.98028 138.63 3.38718C138.63 2.83363 138.792 2.3622 139.115 1.9729C139.442 1.58358 139.889 1.38892 140.456 1.38892C140.816 1.38892 141.129 1.46192 141.394 1.6079C141.826 1.84516 142.094 2.26032 142.199 2.85342L141.33 2.83972C141.277 2.56599 141.166 2.38198 140.997 2.2877C140.855 2.19948 140.699 2.1554 140.53 2.1554C140.274 2.1554 140.064 2.26032 139.901 2.47018C139.738 2.677 139.656 2.99029 139.656 3.41C139.656 3.8267 139.745 4.12931 139.924 4.31789C140.106 4.50647 140.323 4.60075 140.576 4.60075C140.807 4.60075 140.981 4.5384 141.098 4.41371C141.219 4.289 141.296 4.13237 141.33 3.94379H142.176Z" fill="black"/>
</svg>
